<svg id="visual" viewBox="0 0 540 960" width="540" height="960" xmlns="http://www.w3.org/2000/svg" xmlns:xlink="http://www.w3.org/1999/xlink" version="1.1"><rect x="0" y="0" width="540" height="960" fill="#E8F4FF"></rect><defs><linearGradient id="grad1_0" x1="0%" y1="100%" x2="100%" y2="0%"><stop offset="30%" stop-color="#8590a6" stop-opacity="1"></stop><stop offset="70%" stop-color="#8590a6" stop-opacity="1"></stop></linearGradient></defs><defs><linearGradient id="grad1_1" x1="0%" y1="100%" x2="100%" y2="0%"><stop offset="30%" stop-color="#8590a6" stop-opacity="1"></stop><stop offset="70%" stop-color="#e8f4ff" stop-opacity="1"></stop></linearGradient></defs><defs><linearGradient id="grad2_0" x1="0%" y1="100%" x2="100%" y2="0%"><stop offset="30%" stop-color="#8590a6" stop-opacity="1"></stop><stop offset="70%" stop-color="#8590a6" stop-opacity="1"></stop></linearGradient></defs><defs><linearGradient id="grad2_1" x1="0%" y1="100%" x2="100%" y2="0%"><stop offset="30%" stop-color="#e8f4ff" stop-opacity="1"></stop><stop offset="70%" stop-color="#8590a6" stop-opacity="1"></stop></linearGradient></defs><g transform="translate(540, 960)"><path d="M-486 0C-484.6 -25.1 -483.2 -50.2 -480 -76C-476.8 -101.9 -471.9 -128.4 -447 -145.2C-422.1 -162 -377.4 -169.1 -346.6 -176.6C-315.8 -184.1 -299.1 -192.1 -301.8 -219.2C-304.5 -246.3 -326.6 -292.5 -326.7 -326.7C-326.8 -360.9 -304.8 -383 -268.6 -369.7C-232.4 -356.4 -182.1 -307.7 -157.5 -309.2C-133 -310.7 -134.3 -362.4 -121.1 -372.8C-108 -383.3 -80.3 -352.5 -57.7 -364.5C-35.1 -376.4 -17.6 -431.2 0 -486L0 0Z" fill="#b4c1d2"></path><path d="M-243 0C-242.3 -12.5 -241.6 -25.1 -240 -38C-238.4 -50.9 -235.9 -64.2 -223.5 -72.6C-211.1 -81 -188.7 -84.5 -173.3 -88.3C-157.9 -92.1 -149.5 -96.1 -150.9 -109.6C-152.2 -123.2 -163.3 -146.3 -163.3 -163.3C-163.4 -180.4 -152.4 -191.5 -134.3 -184.9C-116.2 -178.2 -91 -153.8 -78.8 -154.6C-66.5 -155.3 -67.2 -181.2 -60.6 -186.4C-54 -191.6 -40.2 -176.2 -28.9 -182.2C-17.6 -188.2 -8.8 -215.6 0 -243L0 0Z" fill="#8590a6"></path></g><g transform="translate(0, 0)"><path d="M486 0C488.9 26.4 491.9 52.8 480 76C468.1 99.3 441.5 119.5 418.5 136C395.5 152.5 376.2 165.3 375.1 191.1C374 217 391.2 255.8 380.2 276.3C369.3 296.7 330.3 298.6 295.6 295.6C260.8 292.5 230.4 284.4 213.4 293.7C196.3 303 192.6 329.7 185.7 364.4C178.7 399.2 168.5 442 148.6 457.5C128.8 472.9 99.4 461.1 73.1 461.3C46.7 461.5 23.3 473.7 0 486L0 0Z" fill="#b4c1d2"></path><path d="M243 0C244.5 13.2 245.9 26.4 240 38C234.1 49.7 220.7 59.7 209.2 68C197.7 76.2 188.1 82.6 187.6 95.6C187 108.5 195.6 127.9 190.1 138.1C184.7 148.3 165.1 149.3 147.8 147.8C130.4 146.2 115.2 142.2 106.7 146.8C98.2 151.5 96.3 164.8 92.8 182.2C89.4 199.6 84.2 221 74.3 228.7C64.4 236.5 49.7 230.5 36.5 230.6C23.3 230.7 11.7 236.9 0 243L0 0Z" fill="#8590a6"></path></g></svg>